<svg width="340" height="131" viewBox="0 0 340 131" fill="none" xmlns="http://www.w3.org/2000/svg">
<g clip-path="url(#clip0_905_8921)">
<g clip-path="url(#clip1_905_8921)">
<path d="M104.401 51.2921L101.005 41.2731H83.3916L80.0472 51.2921H69.3623L87.5078 2.66719H96.8206L115.086 51.2921H104.401ZM92.1728 14.9602L86.1014 33.1518H98.2956L92.1728 14.9602ZM138.634 41.3073C138.634 40.1218 138.045 39.1929 136.868 38.5204C135.701 37.8365 133.82 37.2267 131.225 36.691C122.604 34.89 118.293 31.2426 118.293 25.7487C118.293 22.5457 119.631 19.8672 122.307 17.7129C124.971 15.57 128.458 14.4986 132.769 14.4986C137.365 14.4986 141.041 15.5757 143.796 17.73C146.563 19.8957 147.947 22.6996 147.947 26.1419H138.257C138.257 24.7627 137.811 23.6229 136.919 22.7224C136.027 21.822 134.632 21.3717 132.734 21.3717C131.099 21.3717 129.836 21.7365 128.944 22.466C128.052 23.2068 127.606 24.1472 127.606 25.287C127.606 26.3471 128.115 27.2076 129.133 27.8687C130.15 28.5184 131.865 29.0826 134.278 29.5614C136.69 30.0401 138.72 30.5815 140.366 31.1856C145.489 33.0549 148.05 36.2977 148.05 40.914C148.05 44.2081 146.632 46.8696 143.796 48.8985C140.949 50.9388 137.285 51.9589 132.803 51.9589C129.761 51.9589 127.063 51.4175 124.708 50.3347C122.352 49.2632 120.506 47.7872 119.168 45.9065C117.83 44.0257 117.161 41.9912 117.161 39.8027H126.337C126.428 41.5238 127.063 42.8403 128.241 43.7522C129.43 44.6641 131.019 45.12 133.009 45.12C134.861 45.12 136.262 44.7666 137.211 44.0599C138.16 43.3647 138.634 42.4471 138.634 41.3073ZM163.726 0V19.0978C166.287 16.0316 169.511 14.4986 173.399 14.4986C181.265 14.4986 185.25 19.0465 185.353 28.1423V51.2921H175.68V28.4158C175.68 26.3414 175.234 24.814 174.342 23.8337C173.45 22.8421 171.964 22.3463 169.883 22.3463C167.047 22.3463 164.995 23.4348 163.726 25.6119V51.2921H154.035V0H163.726ZM194.563 6.27474H204.253V15.1654H210.444V22.2437H204.253V40.2643C204.253 41.6093 204.51 42.5668 205.025 43.1367C205.539 43.718 206.522 44.0087 207.974 44.0087C209.038 44.0087 209.987 43.9346 210.821 43.7864V51.087C208.923 51.6683 206.968 51.9589 204.956 51.9589C198.164 51.9589 194.7 48.5395 194.563 41.7005V22.2437H189.28V15.1654H194.563V6.27474ZM236.342 14.926L236.205 24.2099C234.89 24.0275 233.729 23.9363 232.723 23.9363C229.064 23.9363 226.663 25.173 225.52 27.6465V51.2921H215.847V15.1654H224.988L225.262 19.4739C227.195 16.157 229.882 14.4986 233.323 14.4986C234.398 14.4986 235.404 14.6411 236.342 14.926ZM270.643 51.2921H260.867C260.421 50.4259 260.095 49.3487 259.89 48.0607C257.546 50.6595 254.499 51.9589 250.748 51.9589C247.192 51.9589 244.248 50.9331 241.916 48.8814C239.583 46.8411 238.417 44.2594 238.417 41.1363C238.417 37.3065 239.84 34.3714 242.688 32.3311C245.535 30.2795 249.651 29.2422 255.036 29.2194H259.495V27.1506C259.495 25.4751 259.061 24.1415 258.192 23.1499C257.334 22.1468 255.979 21.6453 254.127 21.6453C252.503 21.6453 251.223 22.0328 250.285 22.8079C249.359 23.583 248.896 24.6487 248.896 26.0051H239.223C239.223 23.9192 239.869 21.9872 241.161 20.2091C242.465 18.4196 244.3 17.0233 246.666 16.0202C249.033 15.0058 251.686 14.4986 254.624 14.4986C259.095 14.4986 262.645 15.6156 265.275 17.8497C267.893 20.0837 269.203 23.2296 269.203 27.2874V42.9486C269.225 46.3681 269.706 48.9612 270.643 50.7279V51.2921ZM252.858 44.5729C254.287 44.5729 255.602 44.2594 256.803 43.6325C258.015 42.9942 258.912 42.1393 259.495 41.0679V34.8616H255.876C251.028 34.8616 248.45 36.5314 248.141 39.8711L248.107 40.4353C248.107 41.6435 248.53 42.6352 249.376 43.4102C250.222 44.1853 251.383 44.5729 252.858 44.5729Z" fill="#A2A2A2"/>
</g>
<g clip-path="url(#clip2_905_8921)">
<path d="M33.1637 68.4836L41.1731 103.089L47.7418 68.4836H57.7578L46.9357 117.109H36.8168L28.876 84.5894L20.9352 117.109H10.8163L-0.00585938 68.4836H10.0102L16.6132 103.02L24.6569 68.4836H33.1637ZM59.9874 99.1393V98.7118C59.9874 95.1214 60.6849 91.9241 62.0798 89.1202C63.4633 86.3162 65.4528 84.1448 68.0483 82.6061C70.6552 81.0787 73.6737 80.315 77.1039 80.315C81.9975 80.315 85.9937 81.8025 89.0922 84.7774C92.1794 87.7638 93.9001 91.8159 94.2546 96.9337L94.3232 99.4128C94.3232 104.952 92.7739 109.398 89.6753 112.749C86.5653 116.1 82.3977 117.775 77.1725 117.775C71.9472 117.775 67.7796 116.106 64.6696 112.766C61.5481 109.426 59.9874 104.884 59.9874 99.1393ZM69.6776 99.4128C69.6776 102.844 70.3236 105.465 71.6156 107.278C72.9076 109.09 74.7599 109.996 77.1725 109.996C79.5164 109.996 81.3515 109.101 82.6778 107.312C83.9927 105.522 84.6502 102.656 84.6502 98.7118C84.6502 95.3493 83.9927 92.7448 82.6778 90.8983C81.3515 89.0518 79.4935 88.1285 77.1039 88.1285C74.7371 88.1285 72.9076 89.0461 71.6156 90.8812C70.3236 92.7163 69.6776 95.5602 69.6776 99.4128ZM120.787 80.7424L120.667 90.0263C119.34 89.844 118.174 89.7528 117.168 89.7528C113.509 89.7528 111.108 90.9895 109.965 93.4629V117.109H100.292V80.9818H109.433L109.707 85.2904C111.651 81.9735 114.344 80.315 117.785 80.315C118.849 80.315 119.849 80.4575 120.787 80.7424ZM147.799 117.109L138.486 102.61L134.988 106.081V117.109H125.315V65.8164H134.988V94.2323L136.874 91.8216L146.153 80.9818H157.781L144.678 96.0446L158.913 117.109H147.799ZM181.586 107.124C181.586 105.938 181.003 105.009 179.837 104.337C178.659 103.653 176.778 103.043 174.194 102.507C165.573 100.707 161.263 97.0591 161.263 91.5651C161.263 88.3622 162.595 85.6836 165.259 83.5293C167.934 81.3864 171.421 80.315 175.721 80.315C180.328 80.315 184.01 81.3921 186.766 83.5464C189.521 85.7121 190.899 88.5161 190.899 91.9583H181.226C181.226 90.5791 180.78 89.4393 179.888 88.5389C178.996 87.6384 177.601 87.1882 175.703 87.1882C174.068 87.1882 172.805 87.5529 171.913 88.2824C171.021 89.0233 170.575 89.9636 170.575 91.1035C170.575 92.1635 171.084 93.0241 172.102 93.6852C173.108 94.3349 174.817 94.8991 177.23 95.3778C179.642 95.8566 181.678 96.398 183.336 97.0021C188.446 98.8714 191.002 102.114 191.002 106.73C191.002 110.025 189.584 112.686 186.749 114.715C183.913 116.755 180.248 117.775 175.755 117.775C172.725 117.775 170.032 117.234 167.677 116.151C165.322 115.08 163.469 113.604 162.12 111.723C160.782 109.842 160.113 107.808 160.113 105.619H169.289C169.381 107.34 170.021 108.657 171.21 109.569C172.388 110.481 173.971 110.936 175.961 110.936C177.813 110.936 179.214 110.583 180.163 109.876C181.112 109.181 181.586 108.264 181.586 107.124ZM229.865 98.8828V99.3786C229.865 104.941 228.596 109.398 226.058 112.749C223.52 116.1 220.095 117.775 215.785 117.775C212.126 117.775 209.17 116.505 206.918 113.963V131.009H197.228V80.9818H206.215L206.54 84.521C208.884 81.717 211.943 80.315 215.716 80.315C220.187 80.315 223.663 81.9621 226.144 85.2562C228.625 88.5503 229.865 93.0925 229.865 98.8828ZM220.175 98.6776C220.175 95.3151 219.581 92.722 218.392 90.8983C217.191 89.0746 215.453 88.1627 213.178 88.1627C210.136 88.1627 208.05 89.3196 206.918 91.6335V106.423C208.095 108.805 210.205 109.996 213.246 109.996C217.866 109.996 220.175 106.223 220.175 98.6776ZM266.637 117.109H256.861C256.415 116.242 256.089 115.165 255.883 113.877C253.539 116.476 250.492 117.775 246.742 117.775C243.197 117.775 240.253 116.75 237.909 114.698C235.577 112.658 234.41 110.076 234.41 106.953C234.41 103.123 235.834 100.188 238.681 98.1476C241.528 96.0959 245.644 95.0587 251.029 95.0359H255.489V92.9671C255.489 91.2915 255.06 89.9579 254.202 88.9663C253.333 87.9632 251.973 87.4617 250.121 87.4617C248.497 87.4617 247.222 87.8493 246.296 88.6243C245.37 89.3994 244.907 90.4652 244.907 91.8216H235.217C235.217 89.7357 235.863 87.8037 237.155 86.0255C238.458 84.236 240.293 82.8397 242.66 81.8367C245.027 80.8222 247.685 80.315 250.635 80.315C255.094 80.315 258.639 81.432 261.268 83.6661C263.887 85.9002 265.196 89.0461 265.196 93.1039V108.765C265.219 112.185 265.699 114.778 266.637 116.544V117.109ZM248.851 110.389C250.281 110.389 251.601 110.076 252.813 109.449C254.014 108.811 254.906 107.956 255.489 106.884V100.678H251.87C247.022 100.678 244.444 102.348 244.135 105.688L244.101 106.252C244.101 107.46 244.524 108.452 245.37 109.227C246.216 110.002 247.376 110.389 248.851 110.389ZM287.715 109.996C289.499 109.996 290.951 109.506 292.071 108.526C293.18 107.545 293.758 106.246 293.803 104.628H302.893C302.87 107.067 302.196 109.307 300.87 111.347C299.555 113.387 297.754 114.966 295.467 116.083C293.18 117.211 290.653 117.775 287.886 117.775C282.695 117.775 278.608 116.134 275.624 112.851C272.628 109.569 271.13 105.032 271.13 99.2418V98.6092C271.13 93.0469 272.617 88.6072 275.589 85.2904C278.551 81.9735 282.627 80.315 287.818 80.315C292.346 80.315 295.976 81.5973 298.709 84.1619C301.453 86.7379 302.848 90.1631 302.893 94.4375H293.803C293.758 92.5681 293.18 91.0465 292.071 89.8725C290.951 88.7098 289.476 88.1285 287.646 88.1285C285.394 88.1285 283.69 88.9435 282.535 90.5735C281.381 92.2148 280.803 94.8706 280.803 98.5408V99.5496C280.803 103.265 281.375 105.933 282.518 107.551C283.662 109.181 285.394 109.996 287.715 109.996ZM325.086 117.775C319.781 117.775 315.459 116.151 312.12 112.903C308.782 109.654 307.112 105.323 307.112 99.9086V98.9683C307.112 95.3436 307.816 92.1008 309.222 89.2399C310.628 86.3789 312.618 84.1733 315.19 82.6232C317.774 81.0844 320.719 80.315 324.023 80.315C328.985 80.315 332.89 81.8709 335.737 84.9826C338.584 88.1057 340.008 92.5226 340.008 98.2331V102.183H316.923C317.231 104.542 318.175 106.434 319.752 107.859C321.33 109.284 323.326 109.996 325.738 109.996C329.466 109.996 332.375 108.651 334.468 105.961L339.236 111.261C337.784 113.313 335.817 114.909 333.336 116.049C330.855 117.2 328.105 117.775 325.086 117.775ZM323.989 88.1285C322.068 88.1285 320.513 88.7725 319.324 90.0605C318.123 91.3485 317.357 93.1951 317.026 95.6001H330.489V94.8307C330.443 92.6992 329.86 91.0465 328.739 89.8725C327.63 88.7098 326.047 88.1285 323.989 88.1285Z" fill="black"/>
</g>
</g>
<defs>
<clipPath id="clip0_905_8921">
<rect width="340" height="131" fill="white"/>
</clipPath>
<clipPath id="clip1_905_8921">
<rect width="201.287" height="51.9601" fill="white" transform="translate(69.3564)"/>
</clipPath>
<clipPath id="clip2_905_8921">
<rect width="340" height="65.1839" fill="white" transform="translate(0 65.8164)"/>
</clipPath>
</defs>
</svg>
